<svg width="600" height="600" viewBox="0 0 600 600" fill="none" xmlns="http://www.w3.org/2000/svg">
<g opacity="0.2">
<path d="M534.382 352.318L535.01 352.21L534.475 351.652L585.409 308.376L537.149 466.481L534.382 352.318ZM408.578 573.941L471.034 494.683L533.369 472.176L408.578 573.941ZM91.593 501.885L22.5336 353.499L151.034 537.3L91.593 501.885ZM43.6073 184.59L19.3313 340.94L16.2146 263.92L43.6073 184.59ZM118.877 135.976L48.4368 175.349L158.43 56.6615L118.877 135.976ZM320.228 18.3018L232.484 60.1463L164.806 52.831L320.228 18.3018ZM572.339 216.978L486.616 87.2163L541.186 147.213L572.339 216.978ZM575.73 226.437L585.964 306.259L535.178 349.411L575.73 226.437ZM470.442 493.103L350.796 384.197H350.824L350.564 383.965L532.539 352.635L470.442 493.103ZM471.82 493.06L533.189 354.24L535.993 469.888L471.82 493.06ZM314.418 544.786L349.546 384.752L469.442 493.886L314.418 544.786ZM315.724 545.672L468.883 495.394L404.361 577.274L315.724 545.672ZM313.821 546.332L401.485 577.587L239.252 588.154L313.821 546.332ZM311.526 546.191L236.532 588.237L155.663 540.058L311.526 546.191ZM131.711 384.048L152.676 537.472L20.5446 348.477L131.711 384.048ZM404.302 71.1267L235.048 60.3167L325.444 17.2075L404.302 71.1267ZM406.812 71.2984L406.798 71.2857L406.754 71.2832L330.8 19.3493L477.155 79.6524L406.812 71.2984ZM408.446 72.7624L481.288 81.4131L572.81 219.953L408.446 72.7624ZM392.461 205.307L532.471 351.366L349.999 382.783L392.461 205.307ZM347.373 384.197L153.984 537.882L132.978 384.168L347.373 384.197ZM160.713 216.361L20.9101 344.678L119.696 137.14L160.713 216.361ZM161.452 215.08L120.666 136.307L231.111 62.5355L161.452 215.08ZM391.639 202.775L234.358 61.5371L405.86 72.4911L391.639 202.775ZM162.483 215.814L232.803 61.8249L390.576 203.503L162.483 215.814ZM348.799 382.379L348.797 382.392L163.044 217.049L391.325 204.726L348.817 382.395L348.799 382.379ZM161.904 217.711L347.523 382.935H133.009L161.904 217.711ZM392.819 203.382L407.031 73.1764L574.129 222.814L392.894 203.5L392.922 203.377L392.819 203.382ZM20.1889 347.04L160.559 218.2L131.784 382.748L20.1889 347.04ZM313.103 544.989L154.889 538.764L348.192 385.147L313.103 544.989ZM393.766 204.862L575.165 224.193L533.475 350.609L393.766 204.862ZM161.288 53.7195L230.801 61.2329L120.949 134.608L161.288 53.7195ZM117.937 137.941L20.2335 343.207L45.8479 178.236L117.937 137.941ZM587.254 306.577L576.826 225.228L577.758 226.063L576.6 223.472L576.593 223.419L576.541 223.339L542.272 146.597L542.231 146.503L482.129 80.4261L482.05 80.3074L325.553 15.8267L160.897 52.4082L160.569 52.3728L160.416 52.6808L44.7016 177.54L44.6805 177.677L15.0063 263.615L14.9679 263.73L18.3374 347.041L17.7475 347.583L18.3672 347.781L18.4514 349.846L18.962 348.772L90.5545 502.601L90.6363 502.777L152.787 539.805L152.887 539.948L153.016 539.953L153.052 540.223L153.239 540.076L236.373 589.605L404.486 578.656L404.779 578.761L405.01 578.468L536.929 470.89L537.253 470.774L537.245 470.418L587.214 306.71L587.254 306.577Z" fill="#3B3B3C"/>
<path d="M231.971 59.8181L216.434 50.6828L208.786 46.1846V73.4516L231.971 87.0838V59.8181Z" fill="#1A4D2E"/>
<path d="M233.21 87.0838L256.396 73.4516V46.1846L248.29 50.9517L233.21 59.8181V87.0838Z" fill="#1A4D2E"/>
<path d="M209.405 45.0916L232.591 58.725L255.776 45.0916L232.591 31.4581L209.405 45.0916Z" fill="#1A4D2E"/>
<path d="M208.786 46.1846L216.434 50.6828L231.971 59.8181V87.0838L208.786 73.4515V46.1846ZM255.776 45.0916L232.591 58.725L209.405 45.0916L232.591 31.4582L255.776 45.0916ZM256.396 46.1846V73.4515L233.21 87.0838V59.8181L248.29 50.9516L256.396 46.1846ZM232.901 30.1834C232.71 30.0711 232.472 30.0711 232.281 30.1834L207.856 44.5451C207.664 44.6574 207.546 44.867 207.546 45.0916V73.8163C207.546 74.041 207.664 74.2492 207.856 74.3628L232.281 88.7245L232.591 88.8078L232.901 88.7245L257.325 74.3628C257.517 74.2492 257.635 74.041 257.635 73.8163V45.0916C257.635 44.867 257.517 44.6574 257.325 44.5451L232.901 30.1834Z" fill="#CCCCC9"/>
<path d="M574.336 219.839L558.799 210.704L551.151 206.207V233.473L574.336 247.106V219.839Z" fill="#1A4D2E"/>
<path d="M575.575 247.106L598.761 233.473V206.207L591.112 210.704L575.575 219.839V247.106Z" fill="#1A4D2E"/>
<path d="M551.77 205.114L574.956 218.747L598.141 205.114L574.956 191.48L551.77 205.114Z" fill="#1A4D2E"/>
<path d="M551.151 206.207L558.799 210.704L574.336 219.839V247.106L551.151 233.473V206.207ZM598.761 206.207V233.473L575.575 247.106V219.839L591.112 210.704L598.761 206.207ZM598.141 205.114L574.956 218.748L551.77 205.114L574.956 191.481L598.141 205.114ZM599.69 204.568L575.266 190.205C575.075 190.092 574.837 190.092 574.646 190.205L550.221 204.568C550.03 204.68 549.911 204.888 549.911 205.114V233.837C549.911 234.062 550.03 234.27 550.221 234.384L574.646 248.746L574.956 248.83L575.266 248.746L599.69 234.384C599.881 234.27 600 234.062 600 233.837V205.114C600 204.888 599.881 204.68 599.69 204.568Z" fill="#CCCCC9"/>
<path d="M121.037 133.357L110.266 127.024L105.6 124.281V142.434L121.037 151.51V133.357Z" fill="#1A4D2E"/>
<path d="M137.093 123.188L121.656 132.265L106.22 123.188L121.656 114.111L137.093 123.188ZM137.712 124.281V142.434L122.276 151.51V133.357L133.048 127.024L137.712 124.281ZM105.6 124.281L110.266 127.024L121.037 133.357V151.51L105.6 142.434V124.281ZM121.347 153.15L121.656 153.234L121.966 153.15L138.642 143.344C138.834 143.232 138.952 143.024 138.952 142.798V123.188C138.952 122.962 138.834 122.754 138.642 122.642L121.966 112.836C121.775 112.724 121.539 112.724 121.347 112.836L104.671 122.642C104.48 122.754 104.361 122.962 104.361 123.188V142.798C104.361 143.024 104.48 143.232 104.671 143.344L121.347 153.15Z" fill="#CCCCC9"/>
<path d="M122.276 151.51L137.712 142.434V124.281L133.048 127.024L122.276 133.357V151.51Z" fill="#1A4D2E"/>
<path d="M106.22 123.188L121.656 132.265L137.093 123.188L121.656 114.111L106.22 123.188Z" fill="#1A4D2E"/>
<path d="M160.325 212.532L144.789 203.396L137.14 198.899V226.165L160.325 239.797V212.532Z" fill="#1A4D2E"/>
<path d="M161.565 239.797L184.75 226.165V198.899L177.101 203.396L161.565 212.532V239.797Z" fill="#1A4D2E"/>
<path d="M137.759 197.805L160.945 211.438L184.13 197.805L160.945 184.171L137.759 197.805Z" fill="#1A4D2E"/>
<path d="M137.14 198.899L144.789 203.396L160.325 212.531V239.797L137.14 226.165V198.899ZM184.75 198.899V226.165L161.565 239.797V212.531L177.101 203.396L184.75 198.899ZM184.13 197.805L160.945 211.438L137.76 197.805L160.945 184.171L184.13 197.805ZM161.255 182.897C161.064 182.784 160.826 182.784 160.635 182.897L136.21 197.258C136.018 197.372 135.901 197.58 135.901 197.805V226.528C135.901 226.754 136.018 226.963 136.21 227.075L160.635 241.438L160.945 241.521L161.255 241.438L185.68 227.075C185.872 226.963 185.989 226.754 185.989 226.528V197.805C185.989 197.58 185.872 197.372 185.68 197.258L161.255 182.897Z" fill="#CCCCC9"/>
<path d="M406.756 68.7995L391.345 59.7387L383.569 55.166V82.4329L406.756 96.0651V68.7995Z" fill="#1A4D2E"/>
<path d="M407.995 96.0651L431.181 82.4329V55.166L424.439 59.1303L407.995 68.7995V96.0651Z" fill="#1A4D2E"/>
<path d="M384.189 54.0729L407.376 67.7064L430.561 54.0729L407.376 40.4394L384.189 54.0729Z" fill="#1A4D2E"/>
<path d="M383.569 55.1659L391.345 59.7386L406.756 68.7994V96.065L383.569 82.4329V55.1659ZM430.561 54.0729L407.376 67.7064L384.189 54.0729L407.376 40.4394L430.561 54.0729ZM431.181 55.1659V82.4329L407.995 96.065V68.7994L424.439 59.1303L431.181 55.1659ZM407.685 39.1646C407.493 39.0523 407.257 39.0523 407.066 39.1646L382.64 53.5264C382.448 53.6387 382.33 53.847 382.33 54.0729V82.7963C382.33 83.0223 382.448 83.2305 382.64 83.3428L407.066 97.7046L407.376 97.7891L407.685 97.7046L432.11 83.3428C432.301 83.2305 432.42 83.0223 432.42 82.7963V54.0729C432.42 53.847 432.301 53.6387 432.11 53.5264L407.685 39.1646Z" fill="#CCCCC9"/>
<path d="M348.554 380.876L314.811 361.034V400.715L348.554 420.557V380.876Z" fill="#1A4D2E"/>
<path d="M349.793 420.557L383.536 400.715V361.034L349.793 380.876V420.557Z" fill="#1A4D2E"/>
<path d="M315.431 359.941L349.173 379.783L382.916 359.941L349.173 340.101L315.431 359.941Z" fill="#1A4D2E"/>
<path d="M383.536 400.715L349.793 420.557V380.876L383.536 361.034V400.715ZM314.811 361.034L348.554 380.876V420.557L314.811 400.715V361.034ZM382.916 359.941L349.173 379.783L315.431 359.941L349.173 340.101L382.916 359.941ZM349.483 338.826C349.291 338.714 349.054 338.714 348.864 338.826L313.882 359.395C313.691 359.507 313.572 359.715 313.572 359.941V401.08C313.572 401.306 313.691 401.514 313.882 401.627L348.864 422.196L349.173 422.281L349.483 422.196L384.465 401.627C384.657 401.514 384.775 401.306 384.775 401.08V359.941C384.775 359.715 384.657 359.507 384.465 359.395L349.483 338.826Z" fill="#CCCCC9"/>
<path d="M131.65 378.141L108.464 364.508V391.773L131.65 405.407V378.141Z" fill="#1A4D2E"/>
<path d="M156.075 364.508L132.889 378.141V405.407L156.075 391.773V364.508Z" fill="#1A4D2E"/>
<path d="M108.464 364.508L131.65 378.141V405.407L108.464 391.773V364.508ZM155.455 363.415L132.27 377.048L109.084 363.415L132.27 349.781L155.455 363.415ZM132.889 378.141L156.075 364.508V391.773L132.889 405.407V378.141ZM157.314 392.138V363.415C157.314 363.189 157.196 362.981 157.004 362.869L132.579 348.506C132.388 348.394 132.152 348.394 131.96 348.506L107.535 362.869C107.344 362.981 107.225 363.189 107.225 363.415V392.138C107.225 392.364 107.344 392.572 107.535 392.685L131.96 407.045L132.27 407.131L132.579 407.045L157.004 392.685C157.196 392.572 157.314 392.364 157.314 392.138Z" fill="#CCCCC9"/>
<path d="M132.27 377.048L155.455 363.415L132.27 349.781L109.084 363.415L132.27 377.048Z" fill="#1A4D2E"/>
<path d="M18.3486 347.675L7.11342 341.069L1.23929 337.616V357.735L18.3486 367.796V347.675Z" fill="#1A4D2E"/>
<path d="M19.5879 367.796L36.696 357.735V337.616L31.2953 340.792L19.5879 347.675V367.796Z" fill="#1A4D2E"/>
<path d="M1.85889 336.523L18.9682 346.583L36.0763 336.523L18.9682 326.463L1.85889 336.523Z" fill="#1A4D2E"/>
<path d="M1.23927 337.616L7.1134 341.069L18.3486 347.675V367.795L1.23927 357.735V337.616ZM36.0763 336.523L18.9682 346.583L1.8589 336.523L18.9682 326.463L36.0763 336.523ZM36.6959 337.616V357.735L19.5879 367.795V347.675L31.2952 340.792L36.6959 337.616ZM19.2781 325.189C19.0872 325.076 18.8493 325.076 18.6584 325.189L0.309817 335.976C0.11897 336.088 0 336.297 0 336.523V358.1C0 358.324 0.11897 358.533 0.309817 358.646L18.6584 369.435L18.9682 369.52L19.2781 369.435L37.6254 358.646C37.8175 358.533 37.9352 358.324 37.9352 358.1V336.523C37.9352 336.297 37.8175 336.088 37.6254 335.976L19.2781 325.189Z" fill="#CCCCC9"/>
<path d="M404.043 573.989L386.935 563.93V584.048L404.043 594.107V573.989Z" fill="#1A4D2E"/>
<path d="M405.282 594.107L422.392 584.048V563.93L405.282 573.989V594.107Z" fill="#1A4D2E"/>
<path d="M387.555 562.837L404.663 572.896L421.772 562.837L404.663 552.776L387.555 562.837Z" fill="#1A4D2E"/>
<path d="M422.392 584.048L405.283 594.107V573.989L422.392 563.93V584.048ZM386.935 563.93L404.043 573.989V594.107L386.935 584.048V563.93ZM404.663 572.896L387.555 562.837L404.663 552.776L421.772 562.837L404.663 572.896ZM423.321 562.29L404.973 551.503C404.782 551.389 404.544 551.389 404.353 551.503L386.006 562.29C385.815 562.403 385.696 562.611 385.696 562.837V584.413C385.696 584.637 385.815 584.846 386.006 584.958L404.353 595.747L404.663 595.832L404.973 595.747L423.321 584.958C423.512 584.846 423.631 584.637 423.631 584.413V562.837C423.631 562.611 423.512 562.403 423.321 562.29Z" fill="#CCCCC9"/>
<path d="M470.04 490.079L452.931 480.019V500.137L470.04 510.197V490.079Z" fill="#1A4D2E"/>
<path d="M471.28 510.197L488.389 500.137V480.019L471.28 490.079V510.197Z" fill="#1A4D2E"/>
<path d="M453.551 478.926L470.66 488.985L487.769 478.926L470.66 468.865L453.551 478.926Z" fill="#1A4D2E"/>
<path d="M488.389 500.137L471.28 510.197V490.079L488.389 480.019V500.137ZM452.931 480.019L470.04 490.079V510.197L452.931 500.137V480.019ZM470.66 488.985L453.551 478.926L470.66 468.865L487.769 478.926L470.66 488.985ZM489.318 478.379L470.97 467.59C470.779 467.477 470.541 467.477 470.35 467.59L452.002 478.379C451.811 478.491 451.692 478.7 451.692 478.926V500.502C451.692 500.728 451.811 500.936 452.002 501.048L470.35 511.837L470.66 511.921L470.97 511.837L489.318 501.048C489.509 500.936 489.628 500.728 489.628 500.502V478.926C489.628 478.7 489.509 478.491 489.318 478.379Z" fill="#CCCCC9"/>
<path d="M391.504 200.967L380.269 194.359L374.395 190.906V211.026L391.504 221.086V200.967Z" fill="#1A4D2E"/>
<path d="M409.232 189.813L392.124 199.874L375.015 189.813L392.124 179.754L409.232 189.813ZM409.852 190.906V211.026L392.744 221.086V200.967L404.99 193.765L409.852 190.906ZM374.395 190.906L380.269 194.359L391.504 200.967V221.086L374.395 211.026V190.906ZM391.814 222.726L392.124 222.81L392.434 222.726L410.781 211.937C410.972 211.825 411.091 211.616 411.091 211.391V189.813C411.091 189.589 410.972 189.38 410.781 189.267L392.434 178.478C392.243 178.366 392.005 178.366 391.814 178.478L373.466 189.267C373.275 189.38 373.156 189.589 373.156 189.813V211.391C373.156 211.616 373.275 211.825 373.466 211.937L391.814 222.726Z" fill="#CCCCC9"/>
<path d="M392.744 221.086L409.852 211.026V190.906L404.99 193.765L392.744 200.967V221.086Z" fill="#1A4D2E"/>
<path d="M375.015 189.813L392.124 199.874L409.232 189.813L392.124 179.754L375.015 189.813Z" fill="#1A4D2E"/>
<path d="M533.121 350.164L522.574 343.963L516.012 340.105V360.224L533.121 370.284V350.164Z" fill="#1A4D2E"/>
<path d="M534.36 370.284L551.468 360.224V340.105L545.715 343.487L534.36 350.164V370.284Z" fill="#1A4D2E"/>
<path d="M516.632 339.011L533.74 349.071L550.848 339.011L533.74 328.951L516.632 339.011Z" fill="#1A4D2E"/>
<path d="M516.012 340.105L522.574 343.963L533.12 350.164V370.284L516.012 360.224V340.105ZM551.468 340.105V360.224L534.36 370.284V350.164L545.715 343.487L551.468 340.105ZM550.848 339.011L533.74 349.071L516.632 339.011L533.74 328.951L550.848 339.011ZM534.05 327.676C533.859 327.564 533.622 327.564 533.43 327.676L515.083 338.465C514.891 338.577 514.773 338.786 514.773 339.011V360.589C514.773 360.815 514.891 361.023 515.083 361.134L533.43 371.923L533.74 372.009L534.05 371.923L552.397 361.134C552.588 361.023 552.707 360.815 552.707 360.589V339.011C552.707 338.786 552.588 338.577 552.397 338.465L534.05 327.676Z" fill="#CCCCC9"/>
<path d="M12.5067 262.33L5.70189 258.329L2.62231 256.518V268.142L12.5067 273.953V262.33Z" fill="#1A4D2E"/>
<path d="M23.0108 255.425L13.1264 261.237L3.24196 255.425L13.1264 249.613L23.0108 255.425ZM2.62232 256.518L5.7019 258.329L12.5067 262.33V273.953L2.62232 268.142V256.518ZM23.6304 256.518V268.142L13.746 273.953V262.33L20.1109 258.586L23.6304 256.518ZM12.8165 275.594L13.1264 275.678L13.4362 275.594L24.5598 269.052C24.7519 268.94 24.8697 268.731 24.8697 268.505V255.425C24.8697 255.199 24.7519 254.991 24.5598 254.878L13.4362 248.338C13.2441 248.226 13.0074 248.226 12.8165 248.338L1.69287 254.878C1.50079 254.991 1.38306 255.199 1.38306 255.425V268.505C1.38306 268.731 1.50079 268.94 1.69287 269.052L12.8165 275.594Z" fill="#CCCCC9"/>
<path d="M13.746 273.953L23.6304 268.142V256.518L20.1108 258.586L13.746 262.33V273.953Z" fill="#1A4D2E"/>
<path d="M3.24197 255.425L13.1264 261.237L23.0108 255.425L13.1264 249.613L3.24197 255.425Z" fill="#1A4D2E"/>
<path d="M153.519 536.094L143.635 530.282V541.904L153.519 547.717V536.094Z" fill="#1A4D2E"/>
<path d="M154.759 547.717L164.643 541.904V530.282L154.759 536.094V547.717Z" fill="#1A4D2E"/>
<path d="M154.139 534.999L164.023 529.188L154.139 523.375L144.254 529.188L154.139 534.999Z" fill="#1A4D2E"/>
<path d="M164.643 541.904L154.758 547.716V536.094L164.643 530.281V541.904ZM143.635 530.281L153.519 536.094V547.716L143.635 541.904V530.281ZM164.023 529.188L154.139 534.999L144.254 529.188L154.139 523.375L164.023 529.188ZM165.572 528.642L154.449 522.102C154.258 521.988 154.021 521.988 153.829 522.102L142.705 528.642C142.513 528.754 142.396 528.963 142.396 529.188V542.269C142.396 542.495 142.513 542.703 142.705 542.816L153.829 549.355L154.139 549.441L154.449 549.355L165.572 542.816C165.764 542.703 165.882 542.495 165.882 542.269V529.188C165.882 528.963 165.764 528.754 165.572 528.642Z" fill="#CCCCC9"/>
<path d="M236.247 586.653L226.362 580.842V592.464L236.247 598.276V586.653Z" fill="#1A4D2E"/>
<path d="M237.486 598.276L247.369 592.464V580.842L237.486 586.653V598.276Z" fill="#1A4D2E"/>
<path d="M236.866 585.56L246.749 579.748L236.866 573.936L226.982 579.748L236.866 585.56Z" fill="#1A4D2E"/>
<path d="M247.369 592.464L237.486 598.276V586.653L247.369 580.842V592.464ZM226.362 580.842L236.246 586.653V598.276L226.362 592.464V580.842ZM246.749 579.748L236.866 585.56L226.982 579.748L236.866 573.936L246.749 579.748ZM248.298 579.203L237.176 572.661C236.984 572.548 236.747 572.548 236.556 572.661L225.433 579.203C225.241 579.315 225.123 579.523 225.123 579.748V592.829C225.123 593.053 225.241 593.262 225.433 593.374L236.556 599.915L236.866 600L237.176 599.915L248.298 593.374C248.49 593.262 248.608 593.053 248.608 592.829V579.748C248.608 579.523 248.49 579.315 248.298 579.203Z" fill="#CCCCC9"/>
<path d="M44.6644 176.846L37.8596 172.845L34.78 171.035V182.658L44.6644 188.469V176.846Z" fill="#1A4D2E"/>
<path d="M45.9038 188.469L55.7882 182.658V171.035L52.7086 172.845L45.9038 176.846V188.469Z" fill="#1A4D2E"/>
<path d="M35.3997 169.942L45.2841 175.754L55.1685 169.942L45.2841 164.13L35.3997 169.942Z" fill="#1A4D2E"/>
<path d="M34.78 171.035L37.8596 172.845L44.6644 176.846V188.469L34.78 182.658V171.035ZM55.7881 171.035V182.658L45.9037 188.469V176.846L52.7085 172.845L55.7881 171.035ZM55.1685 169.942L45.2841 175.754L35.3997 169.942L45.2841 164.13L55.1685 169.942ZM45.5939 162.854C45.403 162.743 45.1651 162.743 44.9743 162.854L33.8506 169.396C33.6597 169.508 33.5408 169.716 33.5408 169.942V183.022C33.5408 183.248 33.6597 183.456 33.8506 183.569L44.9743 190.11L45.2841 190.194L45.5939 190.11L56.7175 183.569C56.9084 183.456 57.0274 183.248 57.0274 183.022V169.942C57.0274 169.716 56.9084 169.508 56.7175 169.396L45.5939 162.854Z" fill="#CCCCC9"/>
<path d="M481.023 80.599L474.219 76.5981L471.14 74.7882V86.4111L481.023 92.2232V80.599Z" fill="#1A4D2E"/>
<path d="M482.262 92.2232L492.147 86.4111V74.7882L489.067 76.5981L482.262 80.599V92.2232Z" fill="#1A4D2E"/>
<path d="M471.759 73.6939L481.643 79.506L491.527 73.6939L481.643 67.8818L471.759 73.6939Z" fill="#1A4D2E"/>
<path d="M471.14 74.7882L474.219 76.5981L481.023 80.599V92.2232L471.14 86.4112V74.7882ZM492.147 74.7882V86.4112L482.262 92.2232V80.599L489.067 76.5981L492.147 74.7882ZM491.527 73.6939L481.643 79.5061L471.759 73.6939L481.643 67.8819L491.527 73.6939ZM481.952 66.6071C481.762 66.4948 481.525 66.4948 481.333 66.6071L470.21 73.1474C470.018 73.261 469.901 73.4693 469.901 73.6939V86.7759C469.901 87.0005 470.018 87.2088 470.21 87.3224L481.333 93.8627L481.643 93.9473L481.952 93.8627L493.076 87.3224C493.267 87.2088 493.386 87.0005 493.386 86.7759V73.6939C493.386 73.4693 493.267 73.261 493.076 73.1474L481.952 66.6071Z" fill="#CCCCC9"/>
<path d="M541.541 143.695L534.738 139.694L531.658 137.884V149.507L541.541 155.319V143.695Z" fill="#1A4D2E"/>
<path d="M552.045 136.791L542.161 142.602L532.278 136.791L542.161 130.979L552.045 136.791ZM552.665 137.884V149.507L542.781 155.319V143.695L549.584 139.694L552.665 137.884ZM531.658 137.884L534.738 139.694L541.541 143.695V155.319L531.658 149.507V137.884ZM541.851 156.959L542.161 157.043L542.471 156.959L553.594 150.419C553.785 150.306 553.904 150.097 553.904 149.872V136.791C553.904 136.565 553.785 136.357 553.594 136.244L542.471 129.703C542.28 129.591 542.043 129.591 541.851 129.703L530.729 136.244C530.537 136.357 530.419 136.565 530.419 136.791V149.872C530.419 150.097 530.537 150.306 530.729 150.419L541.851 156.959Z" fill="#CCCCC9"/>
<path d="M542.781 155.319L552.665 149.507V137.884L549.584 139.694L542.781 143.695V155.319Z" fill="#1A4D2E"/>
<path d="M532.278 136.791L542.161 142.602L552.045 136.791L542.161 130.979L532.278 136.791Z" fill="#1A4D2E"/>
<path d="M536.276 468.502L526.392 462.69V474.313L536.276 480.125V468.502Z" fill="#1A4D2E"/>
<path d="M537.515 480.125L547.399 474.313V462.69L537.515 468.502V480.125Z" fill="#1A4D2E"/>
<path d="M536.895 467.409L546.78 461.597L536.895 455.785L527.012 461.597L536.895 467.409Z" fill="#1A4D2E"/>
<path d="M547.399 474.313L537.515 480.125V468.502L547.399 462.69V474.313ZM526.392 462.69L536.276 468.502V480.125L526.392 474.313V462.69ZM546.78 461.597L536.895 467.409L527.012 461.597L536.895 455.785L546.78 461.597ZM548.329 461.051L537.205 454.51C537.014 454.396 536.777 454.396 536.585 454.51L525.463 461.051C525.271 461.162 525.153 461.371 525.153 461.597V474.677C525.153 474.903 525.271 475.111 525.463 475.224L536.585 481.764L536.895 481.849L537.205 481.764L548.329 475.224C548.52 475.111 548.639 474.903 548.639 474.677V461.597C548.639 461.371 548.52 461.162 548.329 461.051Z" fill="#CCCCC9"/>
<path d="M586.003 304.576L579.199 300.575L576.119 298.765V310.388L586.003 316.199V304.576Z" fill="#1A4D2E"/>
<path d="M587.242 316.199L597.127 310.388V298.765L593.25 301.044L587.242 304.576V316.199Z" fill="#1A4D2E"/>
<path d="M576.739 297.671L586.622 303.483L596.508 297.671L586.622 291.859L576.739 297.671Z" fill="#1A4D2E"/>
<path d="M576.119 298.765L579.199 300.575L586.002 304.576V316.199L576.119 310.388V298.765ZM596.508 297.671L586.622 303.483L576.739 297.671L586.622 291.859L596.508 297.671ZM597.127 298.765V310.388L587.242 316.199V304.576L593.25 301.044L597.127 298.765ZM586.932 290.584C586.741 290.471 586.504 290.471 586.312 290.584L575.19 297.124C574.998 297.238 574.88 297.446 574.88 297.671V310.752C574.88 310.977 574.998 311.185 575.19 311.299L586.312 317.839L586.622 317.924L586.932 317.839L598.057 311.299C598.248 311.185 598.367 310.977 598.367 310.752V297.671C598.367 297.446 598.248 297.238 598.057 297.124L586.932 290.584Z" fill="#CCCCC9"/>
<path d="M160.325 51.4969L153.52 47.496L150.441 45.6861V57.309L160.325 63.121V51.4969Z" fill="#1A4D2E"/>
<path d="M170.829 44.593L160.945 50.4051L151.06 44.593L160.945 38.781L170.829 44.593ZM171.449 45.6861V57.3089L161.564 63.121V51.4969L168.369 47.4959L171.449 45.6861ZM150.441 45.6861L153.52 47.4959L160.325 51.4969V63.121L150.441 57.3089V45.6861ZM160.635 64.7605L160.945 64.8451L161.255 64.7605L172.378 58.2202C172.569 58.1078 172.688 57.8996 172.688 57.6737V44.593C172.688 44.3671 172.569 44.1589 172.378 44.0465L161.255 37.5049C161.064 37.3939 160.826 37.3939 160.635 37.5049L149.511 44.0465C149.321 44.1589 149.202 44.3671 149.202 44.593V57.6737C149.202 57.8996 149.321 58.1078 149.511 58.2202L160.635 64.7605Z" fill="#CCCCC9"/>
<path d="M161.565 63.121L171.449 57.309V45.6861L168.369 47.496L161.565 51.4969V63.121Z" fill="#1A4D2E"/>
<path d="M151.06 44.5931L160.945 50.4052L170.829 44.5931L160.945 38.781L151.06 44.5931Z" fill="#1A4D2E"/>
<path d="M324.879 14.0761L318.075 10.0752L314.996 8.26532V19.8882L324.879 25.699V14.0761Z" fill="#1A4D2E"/>
<path d="M335.383 7.17103L325.499 12.9831L315.615 7.17103L325.499 1.35897L335.383 7.17103ZM336.003 8.26528V19.8882L326.118 25.699V14.0761L332.922 10.0752L336.003 8.26528ZM314.996 8.26528L318.075 10.0752L324.879 14.0761V25.699L314.996 19.8882V8.26528ZM325.189 27.3398L325.499 27.4243L325.808 27.3398L336.932 20.7995C337.123 20.6859 337.242 20.4776 337.242 20.2529V7.17103C337.242 6.94637 337.123 6.73811 336.932 6.62452L325.808 0.0842131C325.617 -0.028116 325.38 -0.028116 325.189 0.0842131L314.066 6.62452C313.874 6.73811 313.756 6.94637 313.756 7.17103V20.2529C313.756 20.4776 313.874 20.6859 314.066 20.7995L325.189 27.3398Z" fill="#CCCCC9"/>
<path d="M326.118 25.699L336.003 19.8882V8.26532L332.922 10.0752L326.118 14.0761V25.699Z" fill="#1A4D2E"/>
<path d="M315.615 7.17109L325.499 12.9832L335.383 7.17109L325.499 1.35903L315.615 7.17109Z" fill="#1A4D2E"/>
<path d="M313.572 540.978L290.386 527.345V554.609L313.572 568.242V540.978Z" fill="#1A4D2E"/>
<path d="M314.811 568.242L337.997 554.609V527.345L314.811 540.978V568.242Z" fill="#1A4D2E"/>
<path d="M314.191 539.884L337.377 526.252L314.191 512.617L291.006 526.252L314.191 539.884Z" fill="#1A4D2E"/>
<path d="M337.997 554.609L314.811 568.242V540.978L337.997 527.344V554.609ZM290.386 527.344L313.572 540.978V568.242L290.386 554.609V527.344ZM337.377 526.251L314.191 539.884L291.006 526.251L314.191 512.617L337.377 526.251ZM338.926 525.705L314.501 511.342C314.31 511.228 314.072 511.228 313.882 511.342L289.457 525.705C289.265 525.817 289.147 526.026 289.147 526.251V554.975C289.147 555.2 289.265 555.408 289.457 555.52L313.882 569.882L314.191 569.966L314.501 569.882L338.926 555.52C339.117 555.408 339.236 555.2 339.236 554.975V526.251C339.236 526.026 339.117 525.817 338.926 525.705Z" fill="#CCCCC9"/>
<path d="M89.8617 502.628L66.675 488.995V516.261L89.8617 529.894V502.628Z" fill="#1A4D2E"/>
<path d="M114.286 488.995L91.101 502.628V529.894L114.286 516.261V488.995Z" fill="#1A4D2E"/>
<path d="M90.4814 501.535L113.667 487.902L90.4814 474.268L67.2947 487.902L90.4814 501.535Z" fill="#1A4D2E"/>
<path d="M66.6751 488.995L89.8618 502.628V529.894L66.6751 516.261V488.995ZM113.667 487.902L90.4814 501.535L67.2947 487.902L90.4814 474.268L113.667 487.902ZM91.101 502.628L114.286 488.995V516.261L91.101 529.894V502.628ZM115.216 487.355L90.7912 472.994C90.5991 472.881 90.3624 472.881 90.1716 472.994L65.7456 487.355C65.5535 487.468 65.4358 487.676 65.4358 487.902V516.625C65.4358 516.85 65.5535 517.059 65.7456 517.171L90.1716 531.534L90.4814 531.619L90.7912 531.534L115.216 517.171C115.407 517.059 115.526 516.85 115.526 516.625V487.902C115.526 487.676 115.407 487.468 115.216 487.355Z" fill="#CCCCC9"/>
</g>
</svg>
